<svg width="150" height="50" viewBox="0 0 150 50" fill="none" xmlns="http://www.w3.org/2000/svg">
<g id="&#225;&#132;&#128;&#225;&#133;&#161;&#225;&#132;&#133;&#225;&#133;&#169;&#225;&#132;&#146;&#225;&#133;&#167;&#225;&#134;&#188; &#225;&#132;&#133;&#225;&#133;&#169;&#225;&#132;&#128;&#225;&#133;&#169;">
<g id="Group">
<path id="Vector" d="M67.3892 31.4665V34.9422H63.9455V31.4665H59.187C58.1728 31.4665 57.7679 30.793 57.7679 30.0994C57.7679 29.4058 58.1567 28.7163 59.187 28.7163H72.1477C73.178 28.7163 73.5668 29.4259 73.5668 30.0994C73.5668 30.7729 73.1619 31.4665 72.1477 31.4665H67.3892ZM71.5744 19.3634C72.4163 19.3634 72.741 19.9888 72.741 20.562C72.741 21.1353 72.4203 21.7086 71.5744 21.7086H62.4101C62.1055 21.7086 61.9531 21.8449 61.9531 22.1135V22.5345H71.4542C72.3161 22.5345 72.6368 23.0917 72.6368 23.665C72.6368 24.2383 72.3 24.7955 71.4542 24.7955H61.9531V25.2004C61.9531 25.5051 62.1055 25.6053 62.4101 25.6053H71.827C72.6889 25.6053 73.0096 26.1947 73.0096 26.7679C73.0096 27.3412 72.6728 27.9145 71.827 27.9145H60.9589C59.187 27.9145 58.5295 27.2049 58.5295 25.5532V21.7407C58.5295 20.105 59.187 19.3593 60.9589 19.3593H71.5744V19.3634Z" fill="#474747"/>
<path id="Vector_2" d="M77.3111 22.5385H75.1503C74.1361 22.5385 73.7312 21.7968 73.7312 21.1032C73.7312 20.4097 74.1201 19.652 75.1503 19.652H82.7792C83.8095 19.652 84.1623 20.4297 84.1623 21.1032C84.1623 21.7768 83.7895 22.5385 82.7792 22.5385H80.5864V24.3625C80.5864 25.1403 80.5342 25.8659 80.4501 26.5394C82.8794 27.3813 84.3667 29.2896 84.1783 33.9159H81.0233C81.2278 31.6709 80.7708 30.2878 79.7565 29.5462C78.9628 31.6709 77.6318 33.1582 75.892 33.8839C75.1664 34.1886 74.1361 33.952 73.7993 33.2946C73.4626 32.6692 73.631 31.8754 74.3045 31.4544C76.4131 30.1395 77.3071 28.0268 77.3071 24.2824V22.5425L77.3111 22.5385ZM85.4812 20.6462C85.4812 19.5678 86.2749 19.0106 87.1529 19.0106C88.0308 19.0106 88.8246 19.5838 88.8246 20.6462V24.9158H89.3818C90.4121 24.9158 90.7168 25.7096 90.7168 26.3831C90.7168 27.0566 90.3961 27.8504 89.3818 27.8504H88.8246V34.854H85.4812V20.6422V20.6462Z" fill="#474747"/>
<path id="Vector_3" d="M96.2931 25.8138V22.9955C96.2931 22.759 96.1408 22.5746 95.8722 22.5746H92.0237C91.0094 22.5746 90.6045 21.7968 90.6045 21.1073C90.6045 20.4177 90.9934 19.656 92.0237 19.656H96.9867C98.8949 19.656 99.6365 20.55 99.6365 22.1215V25.8339C99.6365 31.8072 96.3974 33.9681 92.0237 34.1886C91.1978 34.2206 90.4041 33.7316 90.4041 32.7373C90.4041 32.0277 90.809 31.4865 91.6549 31.3863C94.3047 31.0495 96.2971 29.9671 96.2971 25.8178L96.2931 25.8138ZM101.677 20.6503C101.677 19.5718 102.471 19.0146 103.349 19.0146C104.227 19.0146 105.02 19.5879 105.02 20.6503V24.9198H105.578C106.608 24.9198 106.913 25.7136 106.913 26.3871C106.913 27.0606 106.592 27.8544 105.578 27.8544H105.02V34.8581H101.677V20.6462V20.6503Z" fill="#474747"/>
<path id="Vector_4" d="M113.523 34.2166C111.31 34.2166 110.905 33.5592 110.905 31.4304V22.3501C110.905 20.2253 111.31 19.5638 113.523 19.5638H117.472C119.685 19.5638 120.09 20.2213 120.09 22.3501V25.2686H122.403V20.6422C122.403 19.5638 123.197 19.0066 124.075 19.0066C124.953 19.0066 125.762 19.5798 125.762 20.6422V34.8541H122.403V28.1551H120.09V34.2126H113.523V34.2166ZM114.181 30.9613C114.181 31.3342 114.297 31.5346 114.738 31.5346H116.815V22.8071C116.815 22.4703 116.73 22.2498 116.358 22.2498H114.618C114.245 22.2498 114.181 22.4703 114.181 22.8071V30.9573V30.9613Z" fill="#474747"/>
<path id="Vector_5" d="M136.221 31.1618C137.2 31.1618 137.488 31.9195 137.488 32.5609C137.488 33.2023 137.184 34.0122 136.221 34.0122H129.739C127.731 34.0122 127.157 33.3026 127.157 31.3783V21.3197C127.157 20.1892 127.967 19.6841 128.877 19.6841C129.787 19.6841 130.549 20.2092 130.549 21.3197V30.6887C130.549 31.0776 130.649 31.1618 131.038 31.1618H136.217H136.221ZM138.583 34.8581V20.6823C138.583 19.5838 139.376 19.0106 140.27 19.0106C141.164 19.0106 141.958 19.5838 141.958 20.6823V34.8581H138.583Z" fill="#474747"/>
</g>
<g id="Group_2">
<path id="Vector_6" opacity="0.47" d="M11.7219 44.7322C8.48678 43.2809 6.89125 39.0996 8.15805 35.3953L15.1575 14.8974C16.4244 11.189 20.0724 9.36095 23.3036 10.8122C26.5387 12.2635 28.1343 16.4448 26.8675 20.1491L19.868 40.647C18.6012 44.3553 14.9531 46.1834 11.7219 44.7322Z" fill="#79CAE1"/>
<path id="Vector_7" opacity="0.33" d="M30.1668 44.7322C33.4019 43.2809 34.9975 39.0996 33.7307 35.3953L26.7312 14.8974C25.4644 11.189 21.8163 9.36095 18.5851 10.8122C15.35 12.2635 13.7544 16.4448 15.0212 20.1491L22.0207 40.647C23.2875 44.3553 26.9356 46.1834 30.1668 44.7322Z" fill="#7DC6AB"/>
<path id="Vector_8" opacity="0.24" d="M28.9561 44.7322C25.7209 43.2809 24.1254 39.0996 25.3922 35.3953L32.3917 14.8974C33.6585 11.189 37.3066 9.36095 40.5377 10.8122C43.7729 12.2635 45.3684 16.4448 44.1016 20.1491L37.1021 40.647C35.8353 44.3553 32.1872 46.1834 28.9561 44.7322Z" fill="#79CAE1"/>
<path id="Vector_9" opacity="0.38" d="M47.3969 44.7322C50.6321 43.2809 52.2276 39.0996 50.9608 35.3953L43.9613 14.8974C42.6945 11.189 39.0464 9.36095 35.8153 10.8122C32.5801 12.2635 30.9846 16.4448 32.2514 20.1491L39.2509 40.647C40.5177 44.3553 44.1658 46.1834 47.3969 44.7322Z" fill="#7DC6AB"/>
<path id="Vector_10" opacity="0.33" d="M48.0383 11.6862C49.9468 11.6862 51.494 10.139 51.494 8.23043C51.494 6.32188 49.9468 4.77469 48.0383 4.77469C46.1298 4.77469 44.5827 6.32188 44.5827 8.23043C44.5827 10.139 46.1298 11.6862 48.0383 11.6862Z" fill="#7DC6AB"/>
</g>
</g>
</svg>
